<svg width="57" height="17" viewBox="0 0 57 17" fill="none" xmlns="http://www.w3.org/2000/svg">
<path d="M14.2463 5.4206L13.268 8.92637L11.9432 14.1141L10.6389 8.92637L9.66057 5.4206H6.88876L5.8901 8.92637L4.58571 14.1546L3.28133 8.92637L2.28267 5.4206H0L3.19981 16.5661H5.8901L6.97029 12.8172L8.09124 7.73076H8.4581L9.57905 12.8172L10.6592 16.5661H13.3495L16.5493 5.4206H14.2463Z" fill="#475569"/>
<path d="M23.2951 5.17743C20.0953 5.17743 17.4865 7.62944 17.4865 10.9934C17.4865 14.3167 20.0545 16.8093 23.2951 16.8093C26.5561 16.8093 29.1037 14.337 29.1037 10.9934C29.1037 7.62944 26.5153 5.17743 23.2951 5.17743ZM23.2951 7.366C25.2313 7.366 26.7803 8.84531 26.7803 10.9934C26.7803 13.1414 25.2517 14.6207 23.2951 14.6207C21.3385 14.6207 19.81 13.1414 19.81 10.9934C19.81 8.84531 21.3589 7.366 23.2951 7.366Z" fill="#475569"/>
<path d="M37.4403 5.17743C35.6671 5.17743 34.3831 6.06907 33.7106 7.62944V5.4206H31.4075V16.5661H33.7106V11.4594C33.7106 8.70346 35.3207 7.52812 37.4199 7.52812C37.7256 7.52812 37.909 7.54838 38.1129 7.56865V5.23822C37.9498 5.19769 37.7256 5.17743 37.4403 5.17743Z" fill="#475569"/>
<path d="M39.9664 16.5661H42.2898V0.962402H39.9664V16.5661Z" fill="#475569"/>
<path d="M53.7876 0.962402V7.32547C52.9519 6.0488 51.6068 5.17743 49.8337 5.17743C46.8988 5.17743 44.6773 7.58891 44.6773 10.9934C44.6773 14.3978 46.858 16.8093 49.854 16.8093C51.6068 16.8093 52.9519 15.9582 53.7876 14.7018V16.5661H56.0906V0.962402H53.7876ZM50.3432 14.6207C48.407 14.6207 47.0007 13.1414 47.0007 10.9934C47.0007 8.86558 48.3866 7.366 50.3432 7.366C52.2998 7.366 53.7876 8.86558 53.7876 10.9934C53.7876 13.1414 52.2998 14.6207 50.3432 14.6207Z" fill="#475569"/>
</svg>
